<?xml version="1.0" encoding="utf-8"?>
<!-- Generator: Adobe Illustrator 18.1.1, SVG Export Plug-In . SVG Version: 6.00 Build 0)  -->
<svg version="1.1" id="Layer_1" xmlns="http://www.w3.org/2000/svg" xmlns:xlink="http://www.w3.org/1999/xlink" x="0px" y="0px"
	 viewBox="-175 267 260 260" enable-background="new -175 267 260 260" xml:space="preserve">
<g>
	<g>
		<linearGradient id="SVGID_1_" gradientUnits="userSpaceOnUse" x1="-173.6239" y1="401.5727" x2="83.8566" y2="401.5727">
			<stop  offset="0" style="stop-color:#434345"/>
			<stop  offset="0.1868" style="stop-color:#B2B4B7"/>
			<stop  offset="0.745" style="stop-color:#CCCECF"/>
			<stop  offset="1" style="stop-color:#000000"/>
		</linearGradient>
		<linearGradient id="SVGID_2_" gradientUnits="userSpaceOnUse" x1="-174.8507" y1="401.5727" x2="85.0834" y2="401.5727">
			<stop  offset="0" style="stop-color:#434345"/>
			<stop  offset="0.5206" style="stop-color:#CCCECF"/>
			<stop  offset="1" style="stop-color:#000000"/>
		</linearGradient>
		<path fill="url(#SVGID_1_)" stroke="url(#SVGID_2_)" stroke-width="2.4536" stroke-miterlimit="10" d="M-173.6,496.7l9.8-190.2
			c0.6-12.4,10.4-22.5,21.7-22.5H54.6c11.4,0,21,10.1,21.5,22.5l7.7,190.2c0.5,12.4-9.1,22.5-21.5,22.5h-214.6
			C-164.7,519.1-174.2,509.1-173.6,496.7z"/>
		<linearGradient id="SVGID_3_" gradientUnits="userSpaceOnUse" x1="-171.3212" y1="399.8272" x2="81.5903" y2="399.8272">
			<stop  offset="0" style="stop-color:#717275"/>
			<stop  offset="0.5171" style="stop-color:#C5C7C9"/>
			<stop  offset="1" style="stop-color:#6D6E70"/>
		</linearGradient>
		<path fill="url(#SVGID_3_)" d="M-171.3,493.3l9.5-187c0.6-12.2,10.2-22.1,21.4-22.1H53c11.2,0,20.6,9.9,21.1,22.1l7.5,187
			c0.5,12.2-9,22.1-21.2,22.1h-210.8C-162.5,515.4-171.9,505.5-171.3,493.3z"/>
		
			<linearGradient id="SVGID_4_" gradientUnits="userSpaceOnUse" x1="-46.1982" y1="493.374" x2="-46.1982" y2="280.5615" gradientTransform="matrix(-1 0 0 1 -91 0)">
			<stop  offset="0" style="stop-color:#2B2829"/>
			<stop  offset="0.5889" style="stop-color:#BBBDBF"/>
		</linearGradient>
		<path fill="url(#SVGID_4_)" d="M-150.2,493.4H60.4c6.1,0,10.9-5,10.7-11.2l-6.9-190.5c-0.2-6.1-5-11.2-10.6-11.2H-141
			c-5.6,0-10.5,5-10.8,11.2l-9,190.5C-161,488.3-156.3,493.4-150.2,493.4z"/>
		<linearGradient id="SVGID_5_" gradientUnits="userSpaceOnUse" x1="-44.7574" y1="485.0619" x2="-44.7574" y2="274.8792">
			<stop  offset="0" style="stop-color:#FFFFFF"/>
			<stop  offset="2.060504e-02" style="stop-color:#B9B9BA"/>
			<stop  offset="4.590080e-02" style="stop-color:#69696A"/>
			<stop  offset="5.751754e-02" style="stop-color:#49494B"/>
			<stop  offset="5.928684e-02" style="stop-color:#48484A"/>
			<stop  offset="7.512391e-02" style="stop-color:#424243"/>
			<stop  offset="0.1191" style="stop-color:#404041"/>
			<stop  offset="0.5457" style="stop-color:#414142"/>
			<stop  offset="0.8601" style="stop-color:#3C3B3D"/>
			<stop  offset="0.894" style="stop-color:#3F3E40"/>
			<stop  offset="0.9163" style="stop-color:#474749"/>
			<stop  offset="0.9353" style="stop-color:#565557"/>
			<stop  offset="0.9524" style="stop-color:#6B6B6D"/>
			<stop  offset="0.9683" style="stop-color:#868688"/>
			<stop  offset="0.9832" style="stop-color:#A7A8AA"/>
			<stop  offset="0.9972" style="stop-color:#CECFD1"/>
			<stop  offset="1" style="stop-color:#D7D8DA"/>
		</linearGradient>
		<linearGradient id="SVGID_6_" gradientUnits="userSpaceOnUse" x1="-159.2154" y1="379.9706" x2="69.7007" y2="379.9706">
			<stop  offset="0" style="stop-color:#FFFFFF"/>
			<stop  offset="2.060504e-02" style="stop-color:#B9B9BA"/>
			<stop  offset="4.590080e-02" style="stop-color:#69696A"/>
			<stop  offset="5.751754e-02" style="stop-color:#49494B"/>
			<stop  offset="5.928684e-02" style="stop-color:#48484A"/>
			<stop  offset="7.512391e-02" style="stop-color:#424243"/>
			<stop  offset="0.1191" style="stop-color:#404041"/>
			<stop  offset="0.5457" style="stop-color:#414142"/>
			<stop  offset="0.9349" style="stop-color:#3C3B3D"/>
			<stop  offset="1" style="stop-color:#D7D8DA"/>
		</linearGradient>
		<path fill="url(#SVGID_5_)" stroke="url(#SVGID_6_)" stroke-width="0.6134" stroke-miterlimit="10" d="M58.9,485.1h-207.4
			c-6,0-10.7-5-10.4-11l8.8-188.1c0.3-6.1,5.1-11,10.6-11H52.2c5.5,0,10.3,5,10.5,11L69.4,474C69.6,480.1,64.9,485.1,58.9,485.1z"/>
		<g>
			<path fill="#F47E20" stroke="#9D5424" stroke-width="1.8402" stroke-miterlimit="10" d="M-61.9,353c-6.3-7.9-10.9-10.7-17.3-10.7
				c-7.3,0-12.8,4.5-12.9,10.9c-0.1,5.5,4.4,10.9,12.6,14.1l12,5c15.8,6.4,23.4,16.6,23.3,31c-0.1,21.6-18.3,36.4-43.8,36.4
				c-10.5,0-19.9-2.2-27.7-6.9c-4.2-2.6-6.3-4.3-11.1-9.3l17.4-17.4c10.3,10.5,15,13.3,23.1,13.3c8.1,0,14.4-6,14.5-13.8
				c0.1-5.9-2.9-9.3-11.2-13.4l-9.7-4.7c-10.9-5.2-14.1-7.4-19-12.9c-5.4-6.2-7.5-12.4-7.3-20c0.7-20,17.1-34.3,39.5-34.3
				c14.1,0,23.5,4.5,33.9,15.5L-61.9,353z"/>
			<path fill="#F47E20" stroke="#9D5424" stroke-width="1.8402" stroke-miterlimit="10" d="M12,437.5h-26.4l-0.5-92.4h-25.2
				l0.1-22.4h75.4l0.6,22.4H10.6L12,437.5z"/>
		</g>
	</g>
</g>
</svg>
